<svg version="1.1" xmlns="http://www.w3.org/2000/svg" width="32" height="32" viewBox="0 0 32 32">
<defs>
  <style>
    path {
      fill: #cfaa45;
    }
  </style>
</defs>
<title>handshake</title>
<path d="M31.744 10.016l-5.472-5.472c-0.16-0.192-0.448-0.192-0.64 0l-2.304 2.304c-0.16 0.16-0.16 0.448 0 0.64l0.192 0.16-0.32 0.32c-0.544-0.384-1.664-1.024-3.392-1.024-0.864 0-1.76 0.16-2.688 0.48-0.32 0.128-0.608 0.224-0.896 0.32-0.608-0.384-1.184-0.768-1.6-1.024-0.64-0.416-1.376-0.608-2.176-0.608-1.568 0-2.976 0.768-3.584 1.152l-0.32-0.32 0.16-0.16c0.096-0.096 0.128-0.192 0.128-0.32s-0.032-0.224-0.128-0.32l-2.304-2.304c-0.192-0.192-0.448-0.192-0.64 0l-5.472 5.472c-0.192 0.192-0.192 0.48 0 0.64l2.304 2.304c0.096 0.096 0.192 0.128 0.32 0.128 0.096 0 0.224-0.032 0.288-0.128l0.16-0.128 0.448 0.448c-0.224 3.136 0.512 4.384 2.784 6.72l-0.32 0.288c-0.736 0.736-0.704 1.92 0 2.656 0.352 0.352 0.832 0.544 1.344 0.544 0.064 0 0.096-0.032 0.16-0.032 0 0.064-0.032 0.128-0.032 0.16 0 0.512 0.192 0.992 0.544 1.344s0.832 0.544 1.344 0.544c0.064 0 0.096-0.032 0.16-0.032 0 0.064-0.032 0.128-0.032 0.16 0 0.512 0.192 0.992 0.544 1.344s0.832 0.544 1.344 0.544c0.064 0 0.096-0.032 0.16-0.032 0 0.064-0.032 0.096-0.032 0.16 0 0.512 0.192 0.992 0.544 1.344s0.832 0.544 1.344 0.544c0.48 0 0.96-0.192 1.312-0.544l0.288-0.288 0.224 0.192c0.352 0.384 0.8 0.576 1.312 0.576s0.96-0.192 1.344-0.576c0.352-0.352 0.544-0.864 0.544-1.376 0.576 0.096 1.152-0.096 1.568-0.512 0.352-0.352 0.576-0.832 0.576-1.344 0-0.064-0.032-0.16-0.032-0.224 0.544 0.064 1.024-0.192 1.408-0.576 0.384-0.352 0.544-0.864 0.544-1.344 0.576 0.096 1.184-0.128 1.6-0.544 0.448-0.448 0.576-1.056 0.48-1.664 3.328-3.328 3.936-4.576 3.424-7.36l0.416-0.416 0.16 0.128c0.064 0.096 0.192 0.128 0.288 0.128 0.128 0 0.224-0.032 0.32-0.128l2.304-2.304c0.096-0.096 0.128-0.192 0.128-0.32s-0.032-0.224-0.128-0.32zM2.912 11.328l-1.696-1.696 4.864-4.864 1.664 1.696-4.832 4.864zM8.288 21.632c-0.192 0.16-0.416 0.256-0.672 0.256s-0.512-0.096-0.704-0.288c-0.384-0.384-0.384-0.992 0-1.376l2.56-2.56c0.256-0.288 0.64-0.448 0.96-0.448 0.224 0 0.416 0.096 0.608 0.256 0.192 0.224 0.288 0.48 0.224 0.768-0.032 0.288-0.192 0.576-0.384 0.8 0 0-0.032 0-0.032 0l-2.56 2.56c0 0 0 0 0 0.032zM10.304 23.648c-0.384 0.352-1.024 0.352-1.376-0.032-0.192-0.192-0.288-0.416-0.288-0.672s0.096-0.512 0.288-0.672c0-0.032 0-0.032 0-0.032l2.56-2.56c0 0 0 0 0.032-0.032 0.256-0.256 0.608-0.416 0.928-0.416 0.224 0 0.416 0.096 0.608 0.256 0.16 0.16 0.256 0.384 0.256 0.608 0 0.32-0.16 0.704-0.416 0.96 0 0-0.032 0-0.032 0l-2.56 2.56c0 0 0 0 0 0.032zM12.32 25.664c-0.192 0.16-0.416 0.256-0.672 0.256-0.288 0-0.512-0.096-0.704-0.288s-0.288-0.416-0.288-0.672c0-0.288 0.096-0.512 0.288-0.704 0 0 0 0 0 0l2.56-2.56c0 0 0 0 0.032-0.032 0.256-0.256 0.608-0.416 0.928-0.416 0.224 0 0.416 0.096 0.608 0.256 0.448 0.48 0.192 1.184-0.16 1.536 0 0.032-0.032 0.032-0.032 0.032l-2.56 2.56c0 0 0 0 0 0.032zM12.96 27.648c-0.192-0.192-0.288-0.416-0.288-0.704 0-0.256 0.096-0.48 0.288-0.672 0 0 0 0 0 0l2.56-2.56c0 0 0-0.032 0.032-0.032 0.256-0.256 0.608-0.416 0.928-0.416 0.224 0 0.416 0.096 0.608 0.256 0.48 0.48 0.16 1.216-0.192 1.568l-2.56 2.56c-0.352 0.384-0.992 0.384-1.376 0zM17.504 27.584c-0.384 0.352-1.024 0.384-1.408 0l-0.192-0.224 1.376-1.376 0.256 0.224c0.352 0.384 0.352 0.992-0.032 1.376zM23.712 21.632c-0.384 0.384-1.024 0.384-1.408 0v0c-0.032 0-0.032-0.032-0.064-0.064l-2.688-2.688c-0.192-0.192-0.448-0.192-0.64 0-0.16 0.16-0.16 0.448 0 0.608l2.688 2.688c0.352 0.384 0.352 0.992-0.032 1.376s-1.024 0.384-1.376 0l-2.816-2.784c-0.16-0.192-0.448-0.192-0.608 0-0.192 0.16-0.192 0.448 0 0.608l2.88 2.912c0.192 0.16 0.288 0.416 0.288 0.672 0 0.288-0.096 0.512-0.288 0.704-0.384 0.384-1.024 0.384-1.408 0l-0.384-0.384c0.448-0.736 0.544-1.696-0.16-2.4-0.416-0.416-0.96-0.544-1.536-0.448 0.096-0.544-0.032-1.12-0.448-1.536-0.448-0.448-1.024-0.544-1.6-0.48 0.032-0.096 0.064-0.192 0.064-0.32 0-0.48-0.16-0.896-0.48-1.216-0.416-0.416-0.992-0.544-1.536-0.48 0 0 0 0 0-0.032 0.096-0.576-0.096-1.12-0.48-1.504-0.768-0.768-2.016-0.64-2.848 0.16l-1.632 1.632c-2.176-2.272-2.72-3.296-2.496-6.208 0-0.128-0.032-0.256-0.128-0.352l-0.576-0.608 3.904-3.904 0.576 0.576c0.16 0.16 0.416 0.192 0.576 0.064 0.032-0.032 1.632-1.216 3.392-1.216 0.64 0 1.216 0.16 1.728 0.48 0.256 0.16 0.608 0.384 0.992 0.64-3.296 1.184-5.12 2.112-5.568 3.232-0.192 0.416-0.16 0.832 0.032 1.216 0.288 0.576 0.768 0.864 1.504 0.864 0.864 0 2.048-0.384 4.032-1.248 0.16-0.096 0.288-0.096 0.416-0.128 0.064 0.064 0.096 0.16 0.192 0.224l0.32 0.352c0 0 0 0 0 0s0.064 0.064 0.192 0.192l7.424 7.424c0.384 0.384 0.384 0.992 0 1.376zM24.48 19.712c-3.392-3.392-6.496-6.464-7.456-7.424 0.16-0.224 0.32-0.576 0.192-0.896-0.064-0.16-0.256-0.448-0.832-0.448-0.416 0-0.992 0.16-1.568 0.416-1.856 0.832-2.976 1.184-3.68 1.184-0.48 0-0.608-0.16-0.704-0.352-0.096-0.16-0.096-0.32-0.032-0.48 0.512-1.216 4.416-2.56 7.008-3.456 0.832-0.256 1.632-0.416 2.4-0.416 2.016 0 3.072 0.992 3.104 1.024 0.192 0.192 0.448 0.192 0.64 0l0.576-0.576 3.904 3.904-0.576 0.576c-0.096 0.128-0.16 0.256-0.128 0.416 0.48 2.4 0.288 3.36-2.848 6.528zM29.12 12l-4.832-4.832 1.664-1.696 4.864 4.864-1.696 1.664z"></path>
</svg>
