<!-- Generated by IcoMoon.io -->
<svg version="1.1" xmlns="http://www.w3.org/2000/svg" width="32" height="32" viewBox="0 0 32 32">
<defs>
  <style>
    path {
      fill: #cfaa45;
    }
  </style>
</defs>
<title>lamp</title>
<path d="M15.52 3.072c-5.12 0-9.28 4.16-9.28 9.28 0 3.2 1.6 6.112 4.288 7.84 0.128 0.064 0.224 0.16 0.352 0.224 0.512 0.32 0.768 0.48 0.768 1.376v1.888c0 0.224 0.192 0.448 0.448 0.448h6.848c0.256 0 0.48-0.224 0.48-0.448v-1.888c0-0.896 0.16-0.992 0.928-1.472 2.784-1.728 4.48-4.704 4.48-7.968 0-5.12-4.192-9.28-9.312-9.28zM16.832 15.776c-0.224 0-0.448-0.064-0.64-0.16 0.288-0.384 0.512-0.864 0.512-1.408s-0.224-0.992-0.512-1.408c0.192-0.096 0.416-0.128 0.64-0.128 0.864 0 1.568 0.672 1.568 1.536s-0.704 1.568-1.568 1.568zM15.776 14.208c0 0.288-0.096 0.576-0.256 0.8-0.128-0.224-0.224-0.512-0.224-0.8s0.096-0.544 0.224-0.768c0.16 0.224 0.256 0.48 0.256 0.768zM14.848 15.616c-0.192 0.096-0.384 0.16-0.64 0.16-0.832 0-1.536-0.704-1.536-1.568s0.704-1.536 1.536-1.536c0.256 0 0.448 0.032 0.64 0.128-0.288 0.416-0.48 0.864-0.48 1.408s0.192 1.024 0.48 1.408zM14.688 16.608c0.288-0.064 0.576-0.192 0.832-0.352 0.256 0.16 0.544 0.288 0.864 0.352v6.592h-1.696v-6.592zM19.84 19.552c-0.8 0.512-1.344 0.864-1.344 2.24v1.408h-1.184v-6.592c1.12-0.224 1.984-1.184 1.984-2.4 0-1.344-1.088-2.464-2.464-2.464-0.48 0-0.928 0.192-1.312 0.416-0.384-0.224-0.8-0.416-1.312-0.416-1.344 0-2.464 1.12-2.464 2.464 0 1.216 0.896 2.176 2.016 2.4v6.592h-1.184v-1.408c0-1.408-0.64-1.824-1.216-2.176-0.096-0.064-0.192-0.128-0.32-0.192-2.432-1.568-3.872-4.192-3.872-7.072 0-4.608 3.744-8.384 8.352-8.384s8.384 3.776 8.384 8.384c0 2.944-1.504 5.632-4.064 7.2zM18.944 24.512h-6.848c-0.256 0-0.448 0.192-0.448 0.448v0.576c0 0.64 0.256 1.28 0.736 1.728 0.32 0.352 0.768 0.608 1.28 0.672 0.256 0.832 0.992 1.376 1.856 1.376s1.6-0.544 1.888-1.376c0.48-0.064 0.928-0.32 1.28-0.672 0.48-0.448 0.736-1.088 0.736-1.728v-0.576c0-0.256-0.224-0.448-0.48-0.448zM18.496 25.536c0 0.416-0.16 0.8-0.448 1.088-0.352 0.352-0.768 0.416-1.024 0.448-0.224 0-0.416 0.16-0.448 0.384-0.096 0.544-0.512 0.928-1.056 0.928-0.512 0-0.96-0.384-1.024-0.928-0.032-0.224-0.224-0.384-0.448-0.384-0.288-0.032-0.672-0.096-1.024-0.448-0.288-0.288-0.448-0.672-0.448-1.088v-0.096h5.92v0.096z"></path>
</svg>
