<!-- Generated by IcoMoon.io -->
<svg version="1.1" xmlns="http://www.w3.org/2000/svg" width="32" height="32" viewBox="0 0 32 32">
<defs>
  <style>
    path {
      fill: #cfaa45;
    }
  </style>
</defs>
<title>person bubble</title>
<path d="M8.768 20.096c1.952 0 3.52-1.568 3.52-3.488s-1.568-3.488-3.52-3.488c-1.92 0-3.488 1.568-3.488 3.488s1.568 3.488 3.488 3.488zM8.768 14.048c1.44 0 2.592 1.152 2.592 2.56 0 1.44-1.152 2.592-2.592 2.592-1.408 0-2.56-1.152-2.56-2.592 0-1.408 1.152-2.56 2.56-2.56zM13.024 22.208c-0.032-0.864-0.32-1.696-0.896-2.496-0.096-0.096-0.224-0.16-0.352-0.192-0.128 0-0.256 0.032-0.352 0.128-1.504 1.376-3.776 1.376-5.28 0-0.096-0.096-0.224-0.128-0.352-0.128-0.16 0.032-0.256 0.096-0.352 0.192-0.576 0.832-0.896 1.632-0.896 2.496l-0.16 5.216c-0.032 0.128 0.032 0.256 0.128 0.352 0.064 0.064 0.192 0.128 0.32 0.128h7.904c0 0 0 0 0.032 0 0.256 0 0.448-0.192 0.448-0.448 0-0.064 0-0.128-0.032-0.16l-0.16-5.088zM5.312 26.976l0.128-4.736c0.032-0.544 0.192-1.056 0.48-1.568 0.608 0.416 1.28 0.672 1.984 0.8l-0.48 3.904c-0.032 0.128 0.032 0.256 0.096 0.384 0.096 0.096 0.224 0.128 0.352 0.128h1.824c0 0 0 0 0.032 0 0.256 0 0.448-0.192 0.448-0.448 0-0.064-0.032-0.128-0.032-0.192l-0.48-3.776c0.704-0.128 1.376-0.384 1.984-0.8 0.288 0.512 0.448 1.024 0.48 1.568l0.128 4.736h-6.944zM19.968 4.448c-4.768 0-8.64 3.040-8.64 6.72 0 1.792 0.896 3.488 2.528 4.736l-1.024 2.336c-0.064 0.192-0.032 0.384 0.128 0.512 0.064 0.096 0.192 0.128 0.32 0.128 0.064 0 0.128 0 0.192-0.032l3.040-1.536c1.12 0.384 2.272 0.576 3.456 0.576 4.736 0 8.64-3.008 8.64-6.72 0-3.68-3.904-6.72-8.64-6.72zM19.968 16.992c-1.152 0-2.272-0.224-3.328-0.608-0.128-0.032-0.256-0.032-0.384 0.032l-2.080 1.024 0.672-1.504c0.064-0.192 0-0.416-0.16-0.544-1.6-1.12-2.464-2.624-2.464-4.224 0-3.2 3.456-5.792 7.744-5.792 4.256 0 7.712 2.592 7.712 5.792s-3.456 5.824-7.712 5.824zM24.064 8.32h-7.936c-0.256 0-0.48 0.192-0.48 0.448s0.224 0.448 0.48 0.448h7.936c0.224 0 0.448-0.192 0.448-0.448s-0.224-0.448-0.448-0.448zM24.064 10.72h-7.936c-0.256 0-0.48 0.192-0.48 0.448s0.224 0.448 0.48 0.448h7.936c0.224 0 0.448-0.192 0.448-0.448s-0.224-0.448-0.448-0.448zM24.064 13.12h-7.936c-0.256 0-0.48 0.192-0.48 0.448s0.224 0.48 0.48 0.48h7.936c0.224 0 0.448-0.224 0.448-0.48s-0.224-0.448-0.448-0.448z"></path>
</svg>
